<svg xmlns="http://www.w3.org/2000/svg" viewBox="0 0 200 200" width="200" height="200">
  <defs>
    
    <filter id="glow3"><feGaussianBlur stdDeviation="0.7"></feGaussianBlur><feMerge><feMergeNode></feMergeNode><feMergeNode in="SourceGraphic"></feMergeNode></feMerge></filter>
    <path id="circlePath" d="M 100,100 m -78,0 a 78,78 0 1,1 156,0 a 78,78 0 1,1 -156,0"></path>
    <path id="circlePathInner" d="M 100,100 m -62,0 a 62,62 0 1,1 124,0 a 62,62 0 1,1 -124,0"></path>
  </defs>
  <rect class="bg" width="200" height="200"></rect>
  <g filter="url(#glow3)">
    <circle class="ring" cx="100" cy="100" r="90"></circle>
    <circle class="ring-thin" cx="100" cy="100" r="82"></circle>
    <circle class="ring" cx="100" cy="100" r="66"></circle>
    
    <g transform="translate(100 100)">
      <g>
        <line class="tick" x1="0" y1="-90" x2="0" y2="-82"></line>
        <line class="tick" x1="0" y1="-90" x2="0" y2="-82" transform="rotate(30)"></line>
        <line class="tick" x1="0" y1="-90" x2="0" y2="-82" transform="rotate(60)"></line>
        <line class="tick" x1="0" y1="-90" x2="0" y2="-82" transform="rotate(90)"></line>
        <line class="tick" x1="0" y1="-90" x2="0" y2="-82" transform="rotate(120)"></line>
        <line class="tick" x1="0" y1="-90" x2="0" y2="-82" transform="rotate(150)"></line>
        <line class="tick" x1="0" y1="-90" x2="0" y2="-82" transform="rotate(180)"></line>
        <line class="tick" x1="0" y1="-90" x2="0" y2="-82" transform="rotate(210)"></line>
        <line class="tick" x1="0" y1="-90" x2="0" y2="-82" transform="rotate(240)"></line>
        <line class="tick" x1="0" y1="-90" x2="0" y2="-82" transform="rotate(270)"></line>
        <line class="tick" x1="0" y1="-90" x2="0" y2="-82" transform="rotate(300)"></line>
        <line class="tick" x1="0" y1="-90" x2="0" y2="-82" transform="rotate(330)"></line>
      </g>
    </g>
    
    <text class="txt" font-size="8">
      <textPath href="#circlePath" startOffset="0%">◆ PROJECT TURING ◆ AUTONOETIC BUREAU ◆ CASE FILES ◆ EST. 1961 ◆</textPath>
    </text>
    
    <text class="txt" x="100" y="108" text-anchor="middle" font-size="36" font-weight="700">AT</text>
    <text class="txt" x="100" y="128" text-anchor="middle" font-size="7" opacity="0.8">I·REMEMBER</text>
    
    <line class="ring-thin" x1="100" y1="40" x2="100" y2="54"></line>
    <line class="ring-thin" x1="100" y1="146" x2="100" y2="160"></line>
    <line class="ring-thin" x1="40" y1="100" x2="54" y2="100"></line>
    <line class="ring-thin" x1="146" y1="100" x2="160" y2="100"></line>
  </g>
</svg>